<svg width="328" height="49" viewBox="0 0 328 49" fill="none" xmlns="http://www.w3.org/2000/svg">
<path d="M312.229 35.9593V18.8017H303.409V13.0443H328V18.8017H319.18V35.9593H312.229Z" fill="#F9F9F8"/>
<path d="M276.125 35.9593V13.0443H286.551L294.963 30.2878V13.0443H301.651V35.9593H290.64L282.813 19.6324V35.9593H276.125Z" fill="#F9F9F8"/>
<path d="M265.393 35.9593V13.0443H272.315V35.9593H265.393Z" fill="#F9F9F8"/>
<path d="M232.024 35.9593L243.122 13.0443H252.555L263.654 35.9593H256.265L254.016 31.2617H241.691L239.442 35.9593H232.024ZM244.407 25.5616H251.3L247.853 18.3434L244.407 25.5616Z" fill="#F9F9F8"/>
<path d="M211.159 35.9548V12.8757H227.397C232.421 12.8757 236.217 16.1356 236.217 20.4629C236.217 24.7614 232.596 27.9636 227.806 27.9636H218.081V35.9548H211.159ZM218.081 22.7132H226.404C228.215 22.7132 229.325 21.6457 229.325 20.261C229.325 18.8474 228.098 17.78 226.112 17.78H218.081V22.7132Z" fill="#F9F9F8"/>
<path d="M187.963 35.9593V13.0443H194.885V30.116H209.4V35.9593H187.963Z" fill="#F9F9F8"/>
<path d="M154.594 35.9593L165.692 13.0443H175.126L186.224 35.9593H178.835L176.586 31.2617H164.261L162.012 35.9593H154.594ZM166.977 25.5616H173.87L170.424 18.3434L166.977 25.5616Z" fill="#F9F9F8"/>
<path d="M145.906 35.9593V13.0443H152.828V35.9593H145.906Z" fill="#F9F9F8"/>
<path d="M130.026 36.4178C121.907 36.4178 115.861 31.2906 115.861 24.5021C115.861 17.7135 121.936 12.5863 130.026 12.5863C137.415 12.5863 143.197 16.7969 143.519 22.4397H136.247C135.954 20.2341 133.414 18.7447 130.026 18.7447C125.995 18.7447 123.133 21.1221 123.133 24.5021C123.133 27.882 125.966 30.2594 130.026 30.2594C133.414 30.2594 135.954 28.77 136.247 26.5644H143.519C143.197 32.2072 137.415 36.4178 130.026 36.4178Z" fill="#F9F9F8"/>
<path d="M100.781 36.5897C92.7496 36.5897 86.7041 31.4051 86.7041 24.502C86.7041 17.5989 92.7496 12.4144 100.781 12.4144C108.842 12.4144 114.858 17.5989 114.858 24.502C114.858 31.4051 108.842 36.5897 100.781 36.5897ZM93.9762 24.502C93.9762 27.882 96.78 30.4313 100.781 30.4313C104.782 30.4313 107.586 27.882 107.586 24.502C107.586 21.122 104.782 18.5728 100.781 18.5728C96.78 18.5728 93.9762 21.122 93.9762 24.502Z" fill="#F9F9F8"/>
<path d="M72.6189 36.4166C64.5582 36.4166 58.8047 32.6951 58.8047 27.7331H65.7848C65.7848 29.6083 68.8514 30.9353 72.9402 30.9353C76.1528 30.9353 78.4016 30.2141 78.4016 29.0602C78.4016 25.7425 59.2428 28.0216 59.2428 19.6554C59.2428 14.9819 65.522 12.4144 72.4145 12.4144C80.0955 12.4144 84.7684 15.9916 84.7684 20.7805H77.7883C77.7883 19.165 75.335 18.0687 71.6843 18.0687C68.5301 18.0687 66.4273 18.7323 66.4273 19.7708C66.4273 22.7711 85.5862 20.3189 85.5862 28.8871C85.5862 33.474 79.8619 36.4166 72.6189 36.4166Z" fill="#F9F9F8"/>
<path d="M46.4002 13.142C51.003 11.1256 52.4263 5.31249 49.2711 1.41657C48.1102 -0.0168772 46.0835 -0.41676 44.4605 0.467391L36.2506 4.93977C36.2506 4.93977 27.2246 9.17603 25.8224 9.7716L25.6155 9.85342L25.3256 9.95669C25.3256 9.95669 13.8356 14.915 9.46849 16.961C6.20464 18.4922 -1.4252 22.0722 0.23279 28.4928C1.92474 34.9849 10.6372 34.5169 13.9501 34.3389L13.963 34.3382C18.8258 34.0736 24.8922 33.1081 30.2461 32.256L30.2773 32.251C31.5241 32.0534 32.8915 31.8346 34.2582 31.628C31.7941 33.8243 29.2334 35.9091 26.5839 37.8763C23.5647 40.1181 22.6542 44.2994 24.6956 47.4493C25.7286 49.0432 27.8732 49.4965 29.4363 48.4107C33.3214 45.7122 37.0527 42.7991 40.6125 39.685C49.0466 32.2396 50.0291 28.7498 49.8408 26.0888C49.7872 25.3004 49.5672 24.532 49.1951 23.8339C48.8231 23.1357 48.3074 22.5235 47.6816 22.037C44.7673 19.7364 40.5201 20.2734 28.6584 22.1597L28.6272 22.1647C26.4658 22.5098 23.6488 22.9596 20.7987 23.3506C23.566 22.3003 26.3909 21.2949 28.7107 20.4693L29.0089 20.3631L29.1165 20.3248C33.0365 18.6801 44.5432 13.9556 44.5432 13.9556L46.4002 13.142Z" fill="#F9F9F8"/>
</svg>
